<?xml version="1.0" encoding="utf-8"?>
<svg xmlns="http://www.w3.org/2000/svg" style="margin: auto; display: block; shape-rendering: auto; background: none;" width="280" height="250" preserveAspectRatio="xMidYMid">
<style type="text/css">
  text {
    text-anchor: middle; font-size: 63px; opacity: 0;
  }
</style>
<g style="transform-origin: 140px 125px; transform: scale(0.7875);">
<g transform="translate(140,125)">
  <g transform="translate(0,0)"><g class="path" style="transform: matrix(1, 0, 0, 1, 0, 0); transform-origin: -124.615px -5.31148px; animation: 2.43902s linear -1.40854s infinite normal forwards running bounce-8391f30b-9fbe-4880-9d2d-29d0e383c3e8;"><path d="M57.46-42.30L57.46-42.30L50.78-39.49L50.78-39.49Q50-42.03 48.69-44.14L48.69-44.14L48.69-44.14Q47.38-46.25 45.57-47.75L45.57-47.75L45.57-47.75Q43.75-49.26 41.45-50.10L41.45-50.10L41.45-50.10Q39.14-50.94 36.41-50.94L36.41-50.94L36.41-50.94Q33.48-50.94 31.04-49.96L31.04-49.96L31.04-49.96Q28.59-48.98 26.66-47.32L26.66-47.32L26.66-47.32Q24.73-45.66 23.28-43.44L23.28-43.44L23.28-43.44Q21.84-41.21 20.88-38.69L20.88-38.69L20.88-38.69Q19.92-36.17 19.43-33.48L19.43-33.48L19.43-33.48Q18.95-30.78 18.95-28.20L18.95-28.20L18.95-28.20Q18.95-24.10 19.90-20.04L19.90-20.04L19.90-20.04Q20.86-15.98 22.95-12.73L22.95-12.73L22.95-12.73Q25.04-9.49 28.36-7.48L28.36-7.48L28.36-7.48Q31.68-5.47 36.41-5.47L36.41-5.47L36.41-5.47Q38.98-5.47 40.43-6.62L40.43-6.62L40.43-6.62Q41.88-7.77 41.88-10.66L41.88-10.66L41.88-27.93L57.38-27.93L57.38 0L52.89 0L50.16-4.41L50.16-4.41Q46.41-1.56 41.89-0.21L41.89-0.21L41.89-0.21Q37.38 1.13 32.70 1.13L32.70 1.13L32.70 1.13Q28.55 1.13 24.75 0.12L24.75 0.12L24.75 0.12Q20.94-0.90 17.66-2.77L17.66-2.77L17.66-2.77Q14.38-4.65 11.70-7.30L11.70-7.30L11.70-7.30Q9.02-9.96 7.13-13.20L7.13-13.20L7.13-13.20Q5.23-16.45 4.20-20.25L4.20-20.25L4.20-20.25Q3.16-24.06 3.16-28.20L3.16-28.20L3.16-28.20Q3.16-32.34 4.20-36.15L4.20-36.15L4.20-36.15Q5.23-39.96 7.13-43.22L7.13-43.22L7.13-43.22Q9.02-46.48 11.70-49.14L11.70-49.14L11.70-49.14Q14.38-51.80 17.66-53.67L17.66-53.67L17.66-53.67Q20.94-55.55 24.75-56.56L24.75-56.56L24.75-56.56Q28.55-57.58 32.70-57.58L32.70-57.58L32.70-57.58Q36.68-57.58 40.49-56.64L40.49-56.64L40.49-56.64Q44.30-55.70 47.58-53.81L47.58-53.81L47.58-53.81Q50.86-51.91 53.42-49.04L53.42-49.04L53.42-49.04Q55.98-46.17 57.46-42.30" fill="#03e9f4" stroke="none" stroke-width="none" transform="translate(-154.92501831054688,22.913521347045897)" style="fill: rgb(3, 233, 244);"></path></g><g class="path" style="transform: matrix(1, 0, 0, 1, 0, 0); transform-origin: -66.45px 0.258522px; animation: 2.43902s linear -1.20732s infinite normal forwards running bounce-8391f30b-9fbe-4880-9d2d-29d0e383c3e8;"><path d="M112.46-45.12L112.46 0L99.26 0L99.26-5.39L99.26-5.39Q96.91-2.19 93.61-0.64L93.61-0.64L93.61-0.64Q90.31 0.90 86.37 0.90L86.37 0.90L86.37 0.90Q81.21 0.90 77.15-0.94L77.15-0.94L77.15-0.94Q73.09-2.77 70.27-5.96L70.27-5.96L70.27-5.96Q67.46-9.14 65.98-13.44L65.98-13.44L65.98-13.44Q64.49-17.73 64.49-22.66L64.49-22.66L64.49-22.66Q64.49-27.58 65.98-31.88L65.98-31.88L65.98-31.88Q67.46-36.17 70.27-39.36L70.27-39.36L70.27-39.36Q73.09-42.54 77.15-44.38L77.15-44.38L77.15-44.38Q81.21-46.21 86.37-46.21L86.37-46.21L86.37-46.21Q88.98-46.21 91.35-45.43L91.35-45.43L91.35-45.43Q93.71-44.65 95.68-43.22L95.68-43.22L95.68-43.22Q97.66-41.80 99.16-39.79L99.16-39.79L99.16-39.79Q100.66-37.77 101.52-35.31L101.52-35.31L107.38-45.12L112.46-45.12zM99.18-22.66L99.18-22.66L99.18-22.66Q99.18-24.41 99.00-26.37L99.00-26.37L99.00-26.37Q98.83-28.32 98.40-30.23L98.40-30.23L98.40-30.23Q97.97-32.15 97.21-33.89L97.21-33.89L97.21-33.89Q96.45-35.63 95.25-36.97L95.25-36.97L95.25-36.97Q94.06-38.32 92.38-39.10L92.38-39.10L92.38-39.10Q90.70-39.88 88.48-39.88L88.48-39.88L88.48-39.88Q86.25-39.88 84.61-39.08L84.61-39.08L84.61-39.08Q82.97-38.28 81.80-36.93L81.80-36.93L81.80-36.93Q80.63-35.59 79.86-33.83L79.86-33.83L79.86-33.83Q79.10-32.07 78.67-30.16L78.67-30.16L78.67-30.16Q78.24-28.24 78.07-26.31L78.07-26.31L78.07-26.31Q77.89-24.38 77.89-22.66L77.89-22.66L77.89-22.66Q77.89-20.94 78.07-18.98L78.07-18.98L78.07-18.98Q78.24-17.03 78.67-15.12L78.67-15.12L78.67-15.12Q79.10-13.20 79.86-11.45L79.86-11.45L79.86-11.45Q80.63-9.69 81.80-8.34L81.80-8.34L81.80-8.34Q82.97-6.99 84.61-6.19L84.61-6.19L84.61-6.19Q86.25-5.39 88.48-5.39L88.48-5.39L88.48-5.39Q90.51-5.39 92.09-6.23L92.09-6.23L92.09-6.23Q93.67-7.07 94.86-8.48L94.86-8.48L94.86-8.48Q96.05-9.88 96.88-11.68L96.88-11.68L96.88-11.68Q97.70-13.48 98.20-15.39L98.20-15.39L98.20-15.39Q98.71-17.30 98.95-19.20L98.95-19.20L98.95-19.20Q99.18-21.09 99.18-22.66" fill="#03e9f4" stroke="none" stroke-width="none" transform="translate(-154.92501831054688,22.913521347045897)" style="fill: rgb(3, 233, 244);"></path></g><g class="path" style="transform: matrix(1, 0, 0, 1, 0, 0); transform-origin: -7.46002px -7.42148px; animation: 2.43902s linear -1.0061s infinite normal forwards running bounce-8391f30b-9fbe-4880-9d2d-29d0e383c3e8;"><path d="M171.45-22.50L171.45-22.50L171.45-22.50Q171.45-17.58 169.96-13.28L169.96-13.28L169.96-13.28Q168.48-8.98 165.66-5.80L165.66-5.80L165.66-5.80Q162.85-2.62 158.79-0.78L158.79-0.78L158.79-0.78Q154.73 1.05 149.57 1.05L149.57 1.05L149.57 1.05Q146.95 1.05 144.59 0.27L144.59 0.27L144.59 0.27Q142.23-0.51 140.25-1.93L140.25-1.93L140.25-1.93Q138.28-3.36 136.78-5.35L136.78-5.35L136.78-5.35Q135.27-7.34 134.41-9.80L134.41-9.80L128.55 0L123.48 0L123.48-61.72L136.68-61.72L136.68-39.73L136.68-39.73Q139.02-42.97 142.32-44.49L142.32-44.49L142.32-44.49Q145.63-46.02 149.57-46.02L149.57-46.02L149.57-46.02Q154.73-46.02 158.79-44.18L158.79-44.18L158.79-44.18Q162.85-42.34 165.66-39.18L165.66-39.18L165.66-39.18Q168.48-36.02 169.96-31.72L169.96-31.72L169.96-31.72Q171.45-27.42 171.45-22.50zM158.05-22.50L158.05-22.50L158.05-22.50Q158.05-24.22 157.87-26.15L157.87-26.15L157.87-26.15Q157.70-28.09 157.27-30L157.27-30L157.27-30Q156.84-31.91 156.07-33.67L156.07-33.67L156.07-33.67Q155.31-35.43 154.14-36.78L154.14-36.78L154.14-36.78Q152.97-38.13 151.33-38.93L151.33-38.93L151.33-38.93Q149.69-39.73 147.46-39.73L147.46-39.73L147.46-39.73Q145.43-39.73 143.85-38.89L143.85-38.89L143.85-38.89Q142.27-38.05 141.07-36.64L141.07-36.64L141.07-36.64Q139.88-35.23 139.06-33.44L139.06-33.44L139.06-33.44Q138.24-31.64 137.73-29.73L137.73-29.73L137.73-29.73Q137.23-27.81 136.99-25.94L136.99-25.94L136.99-25.94Q136.76-24.06 136.76-22.50L136.76-22.50L136.76-22.50Q136.76-20.74 136.93-18.79L136.93-18.79L136.93-18.79Q137.11-16.84 137.54-14.90L137.54-14.90L137.54-14.90Q137.97-12.97 138.73-11.23L138.73-11.23L138.73-11.23Q139.49-9.49 140.68-8.14L140.68-8.14L140.68-8.14Q141.88-6.80 143.54-6.02L143.54-6.02L143.54-6.02Q145.20-5.23 147.46-5.23L147.46-5.23L147.46-5.23Q149.65-5.23 151.31-6.04L151.31-6.04L151.31-6.04Q152.97-6.84 154.14-8.18L154.14-8.18L154.14-8.18Q155.31-9.53 156.07-11.31L156.07-11.31L156.07-11.31Q156.84-13.09 157.27-15L157.27-15L157.27-15Q157.70-16.91 157.87-18.85L157.87-18.85L157.87-18.85Q158.05-20.78 158.05-22.50" fill="#03e9f4" stroke="none" stroke-width="none" transform="translate(-154.92501831054688,22.913521347045897)" style="fill: rgb(3, 233, 244);"></path></g><g class="path" style="transform: matrix(1, 0, 0, 1, 0, 0); transform-origin: 44.215px -0.191479px; animation: 2.43902s linear -0.804878s infinite normal forwards running bounce-8391f30b-9fbe-4880-9d2d-29d0e383c3e8;"><path d="M218.32-41.13L218.32-41.13L210.90-28.83L210.90-28.83Q210.43-30.39 209.69-32.34L209.69-32.34L209.69-32.34Q208.95-34.30 207.85-36.00L207.85-36.00L207.85-36.00Q206.76-37.70 205.23-38.85L205.23-38.85L205.23-38.85Q203.71-40 201.72-40L201.72-40L201.72-40Q199.88-40 198.54-39.06L198.54-39.06L198.54-39.06Q197.19-38.13 196.25-36.62L196.25-36.62L196.25-36.62Q195.31-35.12 194.71-33.22L194.71-33.22L194.71-33.22Q194.10-31.33 193.77-29.39L193.77-29.39L193.77-29.39Q193.44-27.46 193.32-25.68L193.32-25.68L193.32-25.68Q193.20-23.91 193.20-22.62L193.20-22.62L193.20 0L179.96 0L179.96-45.12L185.04-45.12L190.39-34.61L190.39-34.61Q191.48-37.15 192.89-39.28L192.89-39.28L192.89-39.28Q194.30-41.41 196.13-42.95L196.13-42.95L196.13-42.95Q197.97-44.49 200.29-45.35L200.29-45.35L200.29-45.35Q202.62-46.21 205.55-46.21L205.55-46.21L205.55-46.21Q207.07-46.21 208.95-45.96L208.95-45.96L208.95-45.96Q210.82-45.70 212.62-45.10L212.62-45.10L212.62-45.10Q214.41-44.49 215.94-43.52L215.94-43.52L215.94-43.52Q217.46-42.54 218.32-41.13" fill="#03e9f4" stroke="none" stroke-width="none" transform="translate(-154.92501831054688,22.913521347045897)" style="fill: rgb(3, 233, 244);"></path></g><g class="path" style="transform: matrix(1, 0, 0, 1, 0, 0); transform-origin: 75.565px -33.0815px; animation: 2.43902s linear -0.603659s infinite normal forwards running bounce-8391f30b-9fbe-4880-9d2d-29d0e383c3e8;"><path d="M237.70-56.02L237.70-56.02L237.70-56.02Q237.70-54.53 237.13-53.20L237.13-53.20L237.13-53.20Q236.56-51.88 235.59-50.90L235.59-50.90L235.59-50.90Q234.61-49.92 233.28-49.36L233.28-49.36L233.28-49.36Q231.95-48.79 230.47-48.79L230.47-48.79L230.47-48.79Q228.98-48.79 227.68-49.36L227.68-49.36L227.68-49.36Q226.37-49.92 225.39-50.90L225.39-50.90L225.39-50.90Q224.41-51.88 223.85-53.20L223.85-53.20L223.85-53.20Q223.28-54.53 223.28-56.02L223.28-56.02L223.28-56.02Q223.28-57.50 223.85-58.81L223.85-58.81L223.85-58.81Q224.41-60.12 225.39-61.09L225.39-61.09L225.39-61.09Q226.37-62.07 227.68-62.64L227.68-62.64L227.68-62.64Q228.98-63.20 230.47-63.20L230.47-63.20L230.47-63.20Q231.95-63.20 233.28-62.64L233.28-62.64L233.28-62.64Q234.61-62.07 235.59-61.09L235.59-61.09L235.59-61.09Q236.56-60.12 237.13-58.81L237.13-58.81L237.13-58.81Q237.70-57.50 237.70-56.02" fill="#03e9f4" stroke="none" stroke-width="none" transform="translate(-154.92501831054688,22.913521347045897)" style="fill: rgb(3, 233, 244);"></path></g><g class="path" style="transform: matrix(1, 0, 0, 1, 0, 0); transform-origin: 75.565px 0.37352px; animation: 2.43902s linear -0.402439s infinite normal forwards running bounce-8391f30b-9fbe-4880-9d2d-29d0e383c3e8;"><path d="M237.11-45.08L237.11 0L223.87 0L223.87-45.08L237.11-45.08" fill="#03e9f4" stroke="none" stroke-width="none" transform="translate(-154.92501831054688,22.913521347045897)" style="fill: rgb(3, 233, 244);"></path></g><g class="path" style="transform: matrix(1, 0, 0, 1, 0, 0); transform-origin: 113.63px 0.258522px; animation: 2.43902s linear -0.20122s infinite normal forwards running bounce-8391f30b-9fbe-4880-9d2d-29d0e383c3e8;"><path d="M259.02-21.41L259.02-21.41L259.02-21.41Q261.45-20.86 263.87-20.55L263.87-20.55L263.87-20.55Q266.29-20.23 268.75-20.23L268.75-20.23L268.75-20.23Q271.33-20.23 273.54-20.72L273.54-20.72L273.54-20.72Q275.74-21.21 277.36-22.36L277.36-22.36L277.36-22.36Q278.98-23.52 279.92-25.43L279.92-25.43L279.92-25.43Q280.86-27.34 280.86-30.20L280.86-30.20L280.86-30.20Q280.86-32.50 280.23-34.41L280.23-34.41L280.23-34.41Q279.61-36.33 278.38-37.70L278.38-37.70L278.38-37.70Q277.15-39.06 275.35-39.82L275.35-39.82L275.35-39.82Q273.55-40.59 271.17-40.59L271.17-40.59L271.17-40.59Q268.95-40.59 267.17-39.77L267.17-39.77L267.17-39.77Q265.39-38.95 264.04-37.56L264.04-37.56L264.04-37.56Q262.70-36.17 261.74-34.34L261.74-34.34L261.74-34.34Q260.78-32.50 260.16-30.51L260.16-30.51L260.16-30.51Q259.53-28.52 259.26-26.48L259.26-26.48L259.26-26.48Q258.98-24.45 258.98-22.66L258.98-22.66L258.98-22.66Q258.98-22.34 258.98-22.03L258.98-22.03L258.98-22.03Q258.98-21.72 259.02-21.41zM291.56-30.31L291.56-30.31L291.56-30.31Q291.56-27.54 290.66-25.37L290.66-25.37L290.66-25.37Q289.77-23.20 288.22-21.56L288.22-21.56L288.22-21.56Q286.68-19.92 284.65-18.79L284.65-18.79L284.65-18.79Q282.62-17.66 280.31-16.93L280.31-16.93L280.31-16.93Q278.01-16.21 275.57-15.90L275.57-15.90L275.57-15.90Q273.13-15.59 270.82-15.59L270.82-15.59L270.82-15.59Q267.89-15.59 265.04-16.00L265.04-16.00L265.04-16.00Q262.19-16.41 259.41-17.30L259.41-17.30L259.41-17.30Q259.84-14.73 260.78-12.40L260.78-12.40L260.78-12.40Q261.72-10.08 263.28-8.34L263.28-8.34L263.28-8.34Q264.84-6.60 267.13-5.59L267.13-5.59L267.13-5.59Q269.41-4.57 272.54-4.57L272.54-4.57L272.54-4.57Q274.61-4.57 276.48-5.20L276.48-5.20L276.48-5.20Q278.36-5.82 279.92-6.95L279.92-6.95L279.92-6.95Q281.48-8.09 282.68-9.65L282.68-9.65L282.68-9.65Q283.87-11.21 284.61-13.13L284.61-13.13L290.31-11.02L290.31-11.02Q289.02-7.93 286.78-5.68L286.78-5.68L286.78-5.68Q284.53-3.44 281.70-1.97L281.70-1.97L281.70-1.97Q278.87-0.51 275.68 0.20L275.68 0.20L275.68 0.20Q272.50 0.90 269.38 0.90L269.38 0.90L269.38 0.90Q264.22 0.90 259.84-0.84L259.84-0.84L259.84-0.84Q255.47-2.58 252.30-5.70L252.30-5.70L252.30-5.70Q249.14-8.83 247.34-13.16L247.34-13.16L247.34-13.16Q245.55-17.50 245.55-22.66L245.55-22.66L245.55-22.66Q245.55-27.81 247.34-32.15L247.34-32.15L247.34-32.15Q249.14-36.48 252.30-39.61L252.30-39.61L252.30-39.61Q255.47-42.73 259.84-44.47L259.84-44.47L259.84-44.47Q264.22-46.21 269.38-46.21L269.38-46.21L269.38-46.21Q271.88-46.21 274.49-45.86L274.49-45.86L274.49-45.86Q277.11-45.51 279.57-44.75L279.57-44.75L279.57-44.75Q282.03-43.98 284.22-42.77L284.22-42.77L284.22-42.77Q286.41-41.56 288.03-39.79L288.03-39.79L288.03-39.79Q289.65-38.01 290.61-35.66L290.61-35.66L290.61-35.66Q291.56-33.32 291.56-30.31" fill="#03e9f4" stroke="none" stroke-width="none" transform="translate(-154.92501831054688,22.913521347045897)" style="fill: rgb(3, 233, 244);"></path></g><g class="path" style="transform: matrix(1, 0, 0, 1, 0, 0); transform-origin: 151.48px -10.0365px; animation: 2.43902s linear 0s infinite normal forwards running bounce-8391f30b-9fbe-4880-9d2d-29d0e383c3e8;"><path d="M313.01-52.19L313.01 0L299.80 0L299.80-65.90L304.88-65.90L313.01-52.19" fill="#03e9f4" stroke="none" stroke-width="none" transform="translate(-154.92501831054688,22.913521347045897)" style="fill: rgb(3, 233, 244);"></path></g></g>
</g>
</g>
<style id="bounce-8391f30b-9fbe-4880-9d2d-29d0e383c3e8" data-anikit="">@keyframes bounce-8391f30b-9fbe-4880-9d2d-29d0e383c3e8
{
  0% {
    animation-timing-function: cubic-bezier(0.1361,0.2514,0.2175,0.8786);
    transform: translate(0,0px) scaleY(1);
  }
  37% {
    animation-timing-function: cubic-bezier(0.7674,0.1844,0.8382,0.7157);
    transform: translate(0,16.983px) scaleY(1);
  }
  72% {
    animation-timing-function: cubic-bezier(0.1304,0.2505,0.2631,0.9438);
    transform: translate(0,0px) scaleY(1);
  }
  87% {
    animation-timing-function: cubic-bezier(0.7009,0.2137,0.8137,0.6848);
    transform: translate(0,0.6559999999999999px) scaleY(0.672);
  }
  100% {
    transform: translate(0,0px) scaleY(1);
  }
}</style></svg>